<svg width="65" height="65" viewBox="0 0 65 65" fill="none" xmlns="http://www.w3.org/2000/svg">
<rect x="4.61328" y="4.84961" width="55.2258" height="55.2258" rx="27.6129" fill="#D1FADF"/>
<rect x="4.61328" y="4.84961" width="55.2258" height="55.2258" rx="27.6129" stroke="#ECFDF3" stroke-width="9.2043"/>
<path fill-rule="evenodd" clip-rule="evenodd" d="M26.7615 25.5588C26.7615 22.5405 29.2083 20.0938 32.2265 20.0938C35.2448 20.0938 37.6916 22.5405 37.6916 25.5588C37.6916 28.5771 35.2448 31.0239 32.2265 31.0239C29.2083 31.0239 26.7615 28.5771 26.7615 25.5588ZM32.2265 21.8196C30.1614 21.8196 28.4873 23.4937 28.4873 25.5588C28.4873 27.6239 30.1614 29.2981 32.2265 29.2981C34.2917 29.2981 35.9658 27.6239 35.9658 25.5588C35.9658 23.4937 34.2917 21.8196 32.2265 21.8196Z" fill="#039855"/>
<path d="M39.1298 34.6672C39.6063 34.6672 39.9927 35.0535 39.9927 35.5301V36.2013H40.6636C41.1402 36.2013 41.5265 36.5876 41.5265 37.0642C41.5265 37.5407 41.1402 37.9271 40.6636 37.9271H39.9927V38.5982C39.9927 39.0748 39.6063 39.4611 39.1298 39.4611C38.6532 39.4611 38.2669 39.0748 38.2669 38.5982V37.9271H37.5955C37.119 37.9271 36.7326 37.5407 36.7326 37.0642C36.7326 36.5876 37.119 36.2013 37.5955 36.2013H38.2669V35.5301C38.2669 35.0535 38.6532 34.6672 39.1298 34.6672Z" fill="#039855"/>
<path fill-rule="evenodd" clip-rule="evenodd" d="M35.4189 33.0521C34.4148 32.8556 33.3408 32.7497 32.2265 32.7497C29.5647 32.7497 27.1123 33.3547 25.2951 34.3769C23.5049 35.3839 22.1593 36.9101 22.1593 38.79L22.1593 38.9073C22.158 40.244 22.1563 41.9217 23.6279 43.1201C24.3521 43.7099 25.3653 44.1292 26.7341 44.4063C28.1068 44.6841 29.8958 44.8303 32.2265 44.8303C35.5264 44.8303 37.7605 44.5382 39.2674 43.9772C40.6237 43.4723 41.4277 42.7324 41.8569 41.8012C43.4934 40.857 44.5948 39.0892 44.5948 37.0642C44.5948 34.0459 42.148 31.5991 39.1298 31.5991C37.6972 31.5991 36.3934 32.1503 35.4189 33.0521ZM26.1412 35.8811C24.6001 36.748 23.8851 37.8105 23.8851 38.79C23.8851 40.2947 23.9315 41.1417 24.7177 41.7819C25.144 42.129 25.8566 42.4679 27.0765 42.7148C28.2925 42.9609 29.9551 43.1045 32.2265 43.1045C35.1926 43.1045 37.1049 42.859 38.3368 42.4721C35.6944 42.0881 33.6647 39.8131 33.6647 37.0642C33.6647 36.1807 33.8743 35.3463 34.2465 34.6078C33.6002 34.5215 32.9238 34.4755 32.2265 34.4755C29.805 34.4755 27.6552 35.0294 26.1412 35.8811ZM35.3905 37.0642C35.3905 34.9991 37.0646 33.3249 39.1298 33.3249C41.1949 33.3249 42.869 34.9991 42.869 37.0642C42.869 39.1293 41.1949 40.8034 39.1298 40.8034C37.0646 40.8034 35.3905 39.1293 35.3905 37.0642Z" fill="#039855"/>
</svg>
