<svg width="14" height="14" viewBox="0 0 14 14" fill="none" xmlns="http://www.w3.org/2000/svg">
<path fill-rule="evenodd" clip-rule="evenodd" d="M7.00033 2.77148C6.38175 2.77148 5.88655 2.96279 4.7054 3.43525L3.06713 4.09056C2.47771 4.32633 2.06928 4.49033 1.80455 4.62912C1.77867 4.64268 1.75536 4.65541 1.73438 4.66732C1.75536 4.67922 1.77867 4.69196 1.80455 4.70552C2.06928 4.84431 2.47771 5.00831 3.06713 5.24407L4.7054 5.89938C5.88655 6.37184 6.38175 6.56315 7.00033 6.56315C7.6189 6.56315 8.1141 6.37184 9.29525 5.89938L10.9335 5.24407C11.5229 5.00831 11.9314 4.84431 12.1961 4.70552C12.222 4.69196 12.2453 4.67922 12.2663 4.66732C12.2453 4.65541 12.222 4.64268 12.1961 4.62912C11.9314 4.49033 11.5229 4.32633 10.9335 4.09056L9.29525 3.43525C8.1141 2.96279 7.6189 2.77148 7.00033 2.77148ZM4.4479 2.59584C5.5427 2.15779 6.19577 1.89648 7.00033 1.89648C7.80488 1.89648 8.45795 2.15779 9.55274 2.59584C9.57505 2.60477 9.59754 2.61376 9.62022 2.62284L11.2849 3.28872C11.8418 3.51145 12.2928 3.69185 12.6024 3.85416C12.7591 3.9363 12.9109 4.02943 13.0279 4.1417C13.1482 4.25705 13.2712 4.43199 13.2712 4.66732C13.2712 4.90265 13.1482 5.07759 13.0279 5.19294C12.9109 5.30521 12.7591 5.39833 12.6024 5.48048C12.2928 5.64279 11.8418 5.82318 11.2849 6.04591L9.62022 6.7118C9.59754 6.72087 9.57505 6.72987 9.55274 6.7388C8.45795 7.17684 7.80488 7.43815 7.00033 7.43815C6.19577 7.43815 5.5427 7.17684 4.44791 6.7388C4.4256 6.72987 4.40311 6.72087 4.38043 6.7118L2.71571 6.04591C2.15887 5.82318 1.70786 5.64279 1.39826 5.48048C1.24158 5.39833 1.08979 5.30521 0.972746 5.19294C0.852487 5.07759 0.729492 4.90265 0.729492 4.66732C0.729492 4.43199 0.852487 4.25705 0.972746 4.1417C1.08979 4.02943 1.24158 3.9363 1.39826 3.85416C1.70786 3.69185 2.15887 3.51145 2.71572 3.28872L4.38043 2.62284C4.40311 2.61377 4.4256 2.60477 4.4479 2.59584ZM1.45805 6.67402L1.46018 6.67588C1.46275 6.6781 1.46754 6.6822 1.47454 6.68805C1.48854 6.69974 1.5114 6.71839 1.54312 6.7429C1.60656 6.79193 1.70534 6.86433 1.83946 6.9513C2.1077 7.12527 2.51694 7.35733 3.06713 7.57741L4.7054 8.23272C5.88655 8.70518 6.38175 8.89648 7.00033 8.89648C7.6189 8.89648 8.1141 8.70518 9.29525 8.23272L10.9335 7.57741C11.4837 7.35733 11.8929 7.12527 12.1612 6.9513C12.2953 6.86433 12.3941 6.79193 12.4575 6.7429C12.4892 6.71839 12.5121 6.69974 12.5261 6.68805C12.5331 6.6822 12.5379 6.6781 12.5405 6.67588L12.5417 6.67483C12.542 6.67457 12.5423 6.67425 12.5426 6.67399C12.7225 6.5137 12.9983 6.52902 13.1593 6.70851C13.3207 6.88837 13.3057 7.16497 13.1258 7.32632L12.8337 7.00065C13.1258 7.32632 13.1259 7.32624 13.1258 7.32632L13.125 7.32704L13.124 7.32796L13.1213 7.33035L13.1133 7.33732C13.1068 7.34294 13.098 7.35045 13.0869 7.35972C13.0647 7.37825 13.0333 7.40381 12.9926 7.43525C12.9112 7.49813 12.7928 7.58459 12.6373 7.68543C12.3263 7.88711 11.8667 8.14653 11.2585 8.38982L9.62022 9.04513C9.59754 9.0542 9.57505 9.0632 9.55274 9.07213C8.45795 9.51018 7.80488 9.77148 7.00033 9.77148C6.19577 9.77148 5.5427 9.51018 4.44791 9.07213C4.4256 9.0632 4.40311 9.0542 4.38043 9.04513L2.74216 8.38982C2.13392 8.14653 1.67432 7.88711 1.36335 7.68543C1.20786 7.58459 1.08944 7.49813 1.00807 7.43525C0.967385 7.40381 0.935944 7.37825 0.913747 7.35972C0.902648 7.35045 0.893858 7.34294 0.887376 7.33732L0.879383 7.33035L0.876684 7.32796L0.875659 7.32704L0.875032 7.32648C0.87494 7.3264 0.87485 7.32632 1.16699 7.00065L0.875032 7.32648C0.695171 7.16514 0.679979 6.88837 0.841325 6.70851C1.00235 6.52901 1.27816 6.5137 1.45805 6.67402ZM12.5417 9.00811C12.542 9.00785 12.5423 9.00759 12.5426 9.00733C12.7225 8.84703 12.9983 8.86235 13.1593 9.04184C13.3207 9.2217 13.3057 9.49831 13.1258 9.65965L12.8337 9.33398C13.1258 9.65965 13.1259 9.65957 13.1258 9.65965L13.125 9.66038L13.124 9.66129L13.1213 9.66368L13.1133 9.67066C13.1068 9.67627 13.098 9.68378 13.0869 9.69305C13.0647 9.71158 13.0333 9.73714 12.9926 9.76859C12.9112 9.83147 12.7928 9.91792 12.6373 10.0188C12.3263 10.2204 11.8667 10.4799 11.2585 10.7232L9.62022 11.3785C9.59754 11.3875 9.57505 11.3965 9.55274 11.4055C8.45795 11.8435 7.80488 12.1048 7.00033 12.1048C6.19577 12.1048 5.5427 11.8435 4.44791 11.4055C4.4256 11.3965 4.40311 11.3875 4.38043 11.3785L2.74216 10.7232C2.13392 10.4799 1.67432 10.2204 1.36335 10.0188C1.20786 9.91792 1.08944 9.83147 1.00807 9.76859C0.967385 9.73714 0.935944 9.71158 0.913747 9.69305C0.902648 9.68378 0.893858 9.67627 0.887376 9.67066L0.879383 9.66368L0.876684 9.66129L0.875659 9.66038L0.875032 9.65982C0.87494 9.65973 0.87485 9.65965 1.16699 9.33398L0.875032 9.65982C0.695171 9.49847 0.679979 9.2217 0.841325 9.04184C1.00234 8.86235 1.27814 8.84703 1.45802 9.00732C1.45791 9.00722 1.45814 9.00743 1.45802 9.00732C1.45813 9.00742 1.45858 9.00782 1.45869 9.00792C1.4586 9.00784 1.45878 9.008 1.45869 9.00792L1.46018 9.00921C1.46275 9.01143 1.46754 9.01554 1.47454 9.02138C1.48854 9.03307 1.5114 9.05173 1.54312 9.07623C1.60656 9.12526 1.70534 9.19766 1.83946 9.28464C2.1077 9.4586 2.51694 9.69066 3.06713 9.91074L4.7054 10.566C5.88655 11.0385 6.38175 11.2298 7.00033 11.2298C7.6189 11.2298 8.1141 11.0385 9.29525 10.566L10.9335 9.91074C11.4837 9.69066 11.8929 9.4586 12.1612 9.28464C12.2953 9.19766 12.3941 9.12526 12.4575 9.07623C12.4892 9.05173 12.5121 9.03307 12.5261 9.02138C12.5331 9.01554 12.5379 9.01143 12.5405 9.00921L12.5417 9.00811Z" fill="#6C48CA"/>
</svg>
