<svg width="15" height="14" viewBox="0 0 15 14" fill="none" xmlns="http://www.w3.org/2000/svg">
<path fill-rule="evenodd" clip-rule="evenodd" d="M3.38958 1.3125C3.39869 1.3125 3.40783 1.3125 3.417 1.3125L11.6111 1.3125C12.0001 1.31248 12.3327 1.31247 12.5985 1.346C12.8804 1.38156 13.1529 1.46142 13.3767 1.67139C13.6045 1.88507 13.695 2.15166 13.7347 2.42903C13.7712 2.68383 13.7712 3.00065 13.7712 3.36209L13.7712 3.81507C13.7712 4.10003 13.7712 4.34638 13.7499 4.55181C13.727 4.77287 13.677 4.98026 13.5568 5.17938C13.4376 5.37699 13.2769 5.52043 13.0918 5.64902C12.9174 5.77016 12.6946 5.89557 12.4326 6.04307L10.7162 7.0093C10.3255 7.22924 10.1894 7.30844 10.0986 7.38729C9.89 7.56838 9.77055 7.76931 9.71442 8.02106C9.69043 8.12867 9.68783 8.26421 9.68783 8.67588L9.68783 10.2696C9.68786 10.7953 9.68788 11.2416 9.63379 11.5848C9.57626 11.9496 9.44271 12.2995 9.09269 12.5185C8.75066 12.7324 8.37387 12.7128 8.00771 12.6258C7.65506 12.5421 7.22048 12.3721 6.69904 12.1683L6.64836 12.1485C6.4041 12.053 6.19022 11.9694 6.0209 11.882C5.83893 11.788 5.66994 11.6711 5.54065 11.4892C5.4099 11.3052 5.35748 11.1079 5.33411 10.9062C5.31279 10.7223 5.31281 10.5015 5.31283 10.2554L5.31283 8.67588C5.31283 8.26421 5.31023 8.12867 5.28624 8.02106C5.23011 7.76931 5.11066 7.56838 4.90206 7.38729C4.81124 7.30844 4.6752 7.22924 4.28449 7.0093L2.56807 6.04307C2.30603 5.89557 2.08322 5.77016 1.90883 5.64902C1.72372 5.52043 1.56311 5.37699 1.44385 5.17938C1.32369 4.98026 1.27365 4.77287 1.25075 4.55181C1.22947 4.34638 1.22948 4.10003 1.22949 3.81507L1.2295 3.39189C1.2295 3.38192 1.22949 3.37198 1.22949 3.36208C1.22947 3.00064 1.22944 2.68382 1.26595 2.42903C1.3057 2.15166 1.39619 1.88507 1.62393 1.67139C1.84773 1.46142 2.12021 1.38156 2.40213 1.346C2.66795 1.31247 3.00053 1.31248 3.38958 1.3125ZM2.51163 2.21412C2.317 2.23867 2.25511 2.27903 2.22262 2.30951C2.19409 2.33628 2.15643 2.38341 2.13211 2.55315C2.10555 2.73848 2.1045 2.99173 2.1045 3.39189V3.79428C2.1045 4.1059 2.10503 4.30662 2.1211 4.46165C2.13605 4.60603 2.16173 4.67546 2.19301 4.72728C2.22518 4.7806 2.27862 4.8405 2.40802 4.93039C2.54436 5.02509 2.73062 5.13046 3.01445 5.29024L4.71372 6.24681C4.72963 6.25577 4.7453 6.26459 4.76074 6.27327C5.08665 6.45663 5.30862 6.5815 5.47569 6.72655C5.82065 7.02603 6.04197 7.38979 6.14027 7.83064C6.18804 8.0449 6.18796 8.28515 6.18784 8.62428C6.18783 8.64123 6.18783 8.65843 6.18783 8.67588V10.2331C6.18783 10.5085 6.18851 10.6779 6.20329 10.8055C6.21665 10.9208 6.23771 10.9595 6.25392 10.9823C6.27158 11.0072 6.30657 11.0447 6.42235 11.1045C6.54625 11.1685 6.71696 11.2358 6.98654 11.3412C7.54713 11.5603 7.9242 11.7066 8.20991 11.7745C8.48909 11.8408 8.58109 11.8064 8.62869 11.7766C8.66831 11.7519 8.72958 11.7015 8.76946 11.4485C8.81153 11.1817 8.81283 10.8053 8.81283 10.2331V8.67588C8.81283 8.65843 8.81282 8.64123 8.81282 8.62429C8.8127 8.28515 8.81262 8.0449 8.86039 7.83064C8.95868 7.38979 9.18 7.02603 9.52496 6.72655C9.69204 6.58151 9.914 6.45663 10.2399 6.27329C10.2553 6.2646 10.271 6.25577 10.2869 6.24681L11.9862 5.29024C12.27 5.13046 12.4563 5.02509 12.5926 4.93039C12.722 4.8405 12.7755 4.7806 12.8077 4.72728C12.8389 4.67546 12.8646 4.60603 12.8796 4.46165C12.8956 4.30662 12.8962 4.1059 12.8962 3.79428V3.39189C12.8962 2.99173 12.8951 2.73848 12.8686 2.55315C12.8442 2.38341 12.8066 2.33628 12.778 2.30951C12.7456 2.27903 12.6837 2.23867 12.489 2.21412C12.2845 2.18832 12.0078 2.1875 11.5837 2.1875H3.417C2.99289 2.1875 2.71614 2.18832 2.51163 2.21412Z" fill="#647FA8"/>
</svg>
