<svg width="76" height="84" viewBox="0 0 76 84" fill="none" xmlns="http://www.w3.org/2000/svg">
<circle cx="38.0056" cy="42.0007" r="37.4226" fill="#F0F7FE"/>
<path fill-rule="evenodd" clip-rule="evenodd" d="M38.0053 28.8301C34.7914 28.8301 32.1859 31.4355 32.1859 34.6495C32.1859 37.8635 34.7914 40.469 38.0053 40.469C41.2193 40.469 43.8248 37.8635 43.8248 34.6495C43.8248 31.4355 41.2193 28.8301 38.0053 28.8301ZM34.0236 34.6495C34.0236 32.4505 35.8063 30.6678 38.0053 30.6678C40.2044 30.6678 41.9871 32.4505 41.9871 34.6495C41.9871 36.8486 40.2044 38.6312 38.0053 38.6312C35.8063 38.6312 34.0236 36.8486 34.0236 34.6495Z" fill="#448FED"/>
<path fill-rule="evenodd" clip-rule="evenodd" d="M38.0053 42.3067C35.1709 42.3067 32.5595 42.951 30.6244 44.0394C28.7181 45.1117 27.2853 46.7369 27.2853 48.7387L27.2852 48.8636C27.2839 50.287 27.2821 52.0735 28.8491 53.3496C29.6203 53.9776 30.6992 54.4241 32.1568 54.7192C33.6184 55.015 35.5235 55.1707 38.0053 55.1707C40.4872 55.1707 42.3923 55.015 43.8539 54.7192C45.3115 54.4241 46.3904 53.9776 47.1616 53.3496C48.7286 52.0735 48.7268 50.287 48.7254 48.8636L48.7254 48.7387C48.7254 46.7369 47.2926 45.1117 45.3863 44.0394C43.4512 42.951 40.8398 42.3067 38.0053 42.3067ZM29.123 48.7387C29.123 47.6957 29.8843 46.5642 31.5254 45.6412C33.1376 44.7343 35.4267 44.1444 38.0053 44.1444C40.5839 44.1444 42.8731 44.7343 44.4853 45.6412C46.1264 46.5642 46.8876 47.6957 46.8876 48.7387C46.8876 50.3409 46.8382 51.2429 46.0011 51.9246C45.5472 52.2942 44.7883 52.6551 43.4893 52.918C42.1944 53.1801 40.4241 53.333 38.0053 53.333C35.5866 53.333 33.8162 53.1801 32.5213 52.918C31.2224 52.6551 30.4635 52.2942 30.0095 51.9246C29.1724 51.2429 29.123 50.3409 29.123 48.7387Z" fill="#448FED"/>
</svg>
