<svg width="47" height="47" viewBox="0 0 47 47" fill="none" xmlns="http://www.w3.org/2000/svg">
<rect x="3.42773" y="3.80078" width="40" height="40" rx="20" fill="#DDECFC"/>
<rect x="3.42773" y="3.80078" width="40" height="40" rx="20" stroke="#F7FBFE" stroke-width="6"/>
<path d="M19.666 27.5326L22.9993 24.1992M22.9993 24.1992L26.3327 27.5326M22.9993 24.1992V31.6992M29.666 28.1516C30.6839 27.3109 31.3327 26.0392 31.3327 24.6159C31.3327 22.0846 29.2807 20.0326 26.7493 20.0326C26.5673 20.0326 26.3969 19.9375 26.3044 19.7807C25.2177 17.9366 23.2114 16.6992 20.916 16.6992C17.4642 16.6992 14.666 19.4974 14.666 22.9492C14.666 24.671 15.3622 26.2301 16.4885 27.3605" stroke="#448FED" stroke-width="1.66667" stroke-linecap="round" stroke-linejoin="round"/>
</svg>
